<svg width="110" height="17" viewBox="0 0 110 17" fill="none" xmlns="http://www.w3.org/2000/svg">
<path d="M103.327 13.72L103.807 9.3C103.807 8.94 103.714 8.64 103.527 8.4C103.34 8.16 103.04 8.04 102.627 8.04C102.214 8.04 101.86 8.20667 101.567 8.54C101.287 8.86 101.08 9.28667 100.947 9.82C100.854 10.58 100.714 11.6933 100.527 13.16C100.34 14.6133 100.22 15.56 100.167 16H97.507C98.467 7.82667 99.047 2.80667 99.247 0.939999C99.527 0.833332 99.907 0.779999 100.387 0.779999C101.427 0.779999 101.947 1.08667 101.947 1.7V1.82C101.72 3.91333 101.48 5.75333 101.227 7.34C101.934 6.7 102.734 6.38 103.627 6.38C104.52 6.38 105.227 6.60667 105.747 7.06C106.267 7.51333 106.527 8.08667 106.527 8.78C106.527 8.96667 106.487 9.31333 106.407 9.82C106.1 11.82 105.947 12.9933 105.947 13.34C105.947 13.9667 106.154 14.28 106.567 14.28C106.914 14.28 107.28 14.0533 107.667 13.6C108.067 13.1333 108.387 12.42 108.627 11.46C109.08 11.94 109.354 12.32 109.447 12.6C108.754 14.92 107.527 16.08 105.767 16.08C104.94 16.08 104.327 15.8267 103.927 15.32C103.527 14.8133 103.327 14.28 103.327 13.72Z" fill="white"/>
<path d="M94.752 9.22001C94.752 8.35334 94.3653 7.92001 93.592 7.92001C93.0187 7.92001 92.5053 8.24667 92.052 8.90001C91.572 9.60667 91.332 10.4333 91.332 11.38C91.332 12.3267 91.5387 13.06 91.952 13.58C92.3787 14.0867 92.9587 14.34 93.692 14.34C94.572 14.34 95.4987 13.98 96.472 13.26C97.4587 12.54 98.252 11.6467 98.852 10.58C99.1187 10.78 99.3787 11.1467 99.632 11.68C99.2453 12.4533 98.5253 13.32 97.472 14.28C96.9253 14.7867 96.2453 15.2133 95.432 15.56C94.552 15.9333 93.672 16.12 92.792 16.12C91.6053 16.12 90.5987 15.7133 89.772 14.9C88.9587 14.0867 88.552 13.0267 88.552 11.72C88.552 10.1333 89.0853 8.84667 90.152 7.86001C91.2187 6.87334 92.412 6.38 93.732 6.38C94.7587 6.38 95.572 6.59334 96.172 7.02001C96.772 7.44667 97.072 8.00667 97.072 8.70001C97.072 9.15334 96.912 9.54667 96.592 9.88C96.0053 10.4667 95.292 10.76 94.452 10.76C94.652 10.0933 94.752 9.58001 94.752 9.22001Z" fill="white"/>
<path d="M83.8209 13.76L84.3009 9.29999C84.3009 8.93999 84.2076 8.63999 84.0209 8.39999C83.8343 8.15999 83.5209 8.03998 83.0809 8.03998C82.6543 8.03998 82.2876 8.23332 81.9809 8.61999C81.6876 8.99332 81.5009 9.46665 81.4209 10.04C80.9409 13.6933 80.6876 15.68 80.6609 16H77.9609L79.0609 6.57999C79.6209 6.43332 80.0476 6.35999 80.3409 6.35999C81.2343 6.35999 81.7009 6.68665 81.7409 7.33998C82.3943 6.69998 83.1743 6.37998 84.0809 6.37998C85.0009 6.37998 85.7209 6.60665 86.2409 7.05999C86.7609 7.51332 87.0209 8.08665 87.0209 8.77999C87.0209 8.96665 86.9809 9.31999 86.9009 9.83998C86.5943 11.8667 86.4409 13.0467 86.4409 13.38C86.4409 13.9933 86.6476 14.3 87.0609 14.3C87.9676 14.3 88.6543 13.3533 89.1209 11.46C89.5743 11.94 89.8476 12.32 89.9409 12.6C89.2343 14.9467 88.0076 16.12 86.2609 16.12C85.4343 16.12 84.8209 15.8667 84.4209 15.36C84.0209 14.8533 83.8209 14.32 83.8209 13.76Z" fill="white"/>
<path d="M76.9042 6.58001C76.3575 10.9 76.0842 13.2 76.0842 13.48C76.0842 14.0133 76.2775 14.28 76.6642 14.28C77.0109 14.28 77.3842 14.0467 77.7842 13.58C78.1975 13.1 78.5242 12.3867 78.7642 11.44C79.2042 11.92 79.4709 12.2933 79.5642 12.56C79.2575 13.8533 78.7709 14.7667 78.1042 15.3C77.4375 15.8333 76.7509 16.1 76.0442 16.1C74.8842 16.1 74.1042 15.6533 73.7042 14.76C73.0109 15.6533 72.0842 16.1 70.9242 16.1C69.9642 16.1 69.2242 15.86 68.7042 15.38C68.1842 14.9 67.9242 14.2733 67.9242 13.5C67.9242 13.3133 67.9575 12.9867 68.0242 12.52C68.3309 10.04 68.5642 8.06667 68.7242 6.60001C69.1375 6.45334 69.5175 6.38 69.8642 6.38C70.2109 6.38 70.4709 6.39334 70.6442 6.42C70.8175 6.44667 70.9842 6.54667 71.1442 6.72001C71.3042 6.89334 71.3842 7.14001 71.3842 7.46001L70.7242 12.56C70.6975 12.72 70.6842 12.8667 70.6842 13C70.6842 13.7867 71.0442 14.18 71.7642 14.18C72.4309 14.18 72.9842 13.8533 73.4242 13.2C73.4242 13.0533 73.4375 12.82 73.4642 12.5L74.1242 7.18001C74.2175 6.95334 74.4175 6.76667 74.7242 6.62001C75.0309 6.46001 75.4109 6.38 75.8642 6.38C76.3309 6.38 76.6775 6.44667 76.9042 6.58001Z" fill="white"/>
<path d="M65.9272 16.1C64.7005 16.1 63.8872 15.6733 63.4872 14.82C62.7938 15.6867 61.9005 16.12 60.8072 16.12C59.7272 16.12 58.8138 15.7533 58.0672 15.02C57.3338 14.2867 56.9672 13.32 56.9672 12.12C56.9672 10.3733 57.4805 8.98001 58.5072 7.94001C59.5338 6.90001 60.8338 6.38 62.4072 6.38C62.4472 6.38 62.4872 6.38 62.5272 6.38C63.1938 6.38 63.8072 6.49334 64.3672 6.72001C64.7272 6.49334 65.1605 6.38 65.6672 6.38C66.1872 6.38 66.5605 6.44667 66.7872 6.58001C66.6672 7.56667 66.5405 8.54001 66.4072 9.50001C66.2738 10.4467 66.1805 11.12 66.1272 11.52C66.0072 12.4267 65.9472 13.08 65.9472 13.48C65.9472 14.0133 66.1605 14.28 66.5872 14.28C66.9205 14.28 67.2738 14.06 67.6472 13.62C68.0205 13.1667 68.3472 12.46 68.6272 11.5C69.0138 11.8467 69.2805 12.2333 69.4272 12.66C69.0405 13.9267 68.5205 14.82 67.8672 15.34C67.2138 15.8467 66.5672 16.1 65.9272 16.1ZM62.7072 7.94001C61.8538 7.94001 61.1738 8.26667 60.6672 8.92001C60.1738 9.56001 59.8805 10.52 59.7872 11.8C59.7738 11.92 59.7672 12.0333 59.7672 12.14C59.7672 12.7933 59.9205 13.3133 60.2272 13.7C60.5472 14.0867 60.9538 14.28 61.4472 14.28C62.2872 14.28 62.9205 13.6867 63.3472 12.5L63.8272 8.18001C63.4405 8.02001 63.0672 7.94001 62.7072 7.94001Z" fill="white"/>
<path d="M54.8298 14.26C54.9765 14.3133 55.1365 14.34 55.3098 14.34C55.4965 14.34 55.6698 14.32 55.8298 14.28C56.0032 14.24 56.1565 14.1467 56.2898 14C56.4365 13.84 56.5498 13.7133 56.6298 13.62C56.7098 13.5267 56.8098 13.32 56.9298 13C57.0765 12.6267 57.2565 12.1 57.4698 11.42C58.0298 11.94 58.3632 12.3333 58.4698 12.6C57.8298 14.9467 56.7032 16.12 55.0898 16.12C54.3298 16.12 53.3632 15.6267 52.1898 14.64C51.5765 15.6267 50.6232 16.12 49.3298 16.12C48.7565 16.12 48.2365 15.9267 47.7698 15.54C47.3165 15.1533 47.0898 14.6 47.0898 13.88C47.0898 13.16 47.3298 12.5733 47.8098 12.12C48.2898 11.6533 48.9098 11.42 49.6698 11.42C49.8165 11.42 50.0232 11.4333 50.2898 11.46L50.5698 8.92C49.9832 9.10667 49.0765 9.34667 47.8498 9.64V8.14C48.8498 7.91333 49.8098 7.66 50.7298 7.38L51.1298 4.12C51.4098 1.89333 52.5432 0.779999 54.5298 0.779999C55.3165 0.779999 55.9432 0.999999 56.4098 1.44C56.8898 1.86667 57.1298 2.47333 57.1298 3.26C57.1298 5.15333 55.9098 6.68 53.4698 7.84L52.8698 12.56L52.8498 12.76C53.8365 13.64 54.4965 14.14 54.8298 14.26ZM55.6298 3.42C55.6298 2.86 55.3965 2.58 54.9298 2.58C54.3698 2.58 54.0165 3.24 53.8698 4.56L53.6698 6.14C54.9765 5.36667 55.6298 4.46 55.6298 3.42ZM48.6098 13.74C48.6098 14.14 48.8365 14.34 49.2898 14.34C49.7298 14.34 50.0032 13.9467 50.1098 13.16C49.8565 13.0533 49.6165 13 49.3898 13C49.1765 13 48.9898 13.0733 48.8298 13.22C48.6832 13.3667 48.6098 13.54 48.6098 13.74Z" fill="white"/>
<path d="M43.0788 13.76L43.5588 9.29999C43.5588 8.93999 43.4654 8.63999 43.2788 8.39999C43.0921 8.15999 42.7787 8.03998 42.3387 8.03998C41.9121 8.03998 41.5454 8.23332 41.2388 8.61999C40.9454 8.99332 40.7587 9.46665 40.6787 10.04C40.1987 13.6933 39.9454 15.68 39.9188 16H37.2188L38.3187 6.57999C38.8787 6.43332 39.3054 6.35999 39.5988 6.35999C40.4921 6.35999 40.9587 6.68665 40.9987 7.33998C41.6521 6.69998 42.4321 6.37998 43.3387 6.37998C44.2587 6.37998 44.9787 6.60665 45.4987 7.05999C46.0187 7.51332 46.2788 8.08665 46.2788 8.77999C46.2788 8.96665 46.2388 9.31999 46.1588 9.83998C45.8521 11.8667 45.6987 13.0467 45.6987 13.38C45.6987 13.9933 45.9054 14.3 46.3187 14.3C47.2254 14.3 47.9121 13.3533 48.3787 11.46C48.8321 11.94 49.1054 12.32 49.1987 12.6C48.4921 14.9467 47.2654 16.12 45.5187 16.12C44.6921 16.12 44.0787 15.8667 43.6787 15.36C43.2787 14.8533 43.0788 14.32 43.0788 13.76Z" fill="white"/>
<path d="M31.7824 11.52C32.609 11.3467 33.2224 11.0133 33.6224 10.52C34.0357 10.0267 34.2424 9.55334 34.2424 9.10001C34.2424 8.63334 34.1157 8.32001 33.8624 8.16001C33.6224 7.98667 33.3557 7.90001 33.0624 7.90001C32.4357 7.90001 31.8824 8.25334 31.4024 8.96C30.9357 9.65334 30.7024 10.4867 30.7024 11.46C30.7024 12.42 30.929 13.14 31.3824 13.62C31.849 14.0867 32.4224 14.32 33.1024 14.32C34.1024 14.32 35.0624 13.9733 35.9824 13.28C36.9024 12.5867 37.649 11.68 38.2224 10.56C38.5157 10.84 38.7824 11.1867 39.0224 11.6C38.5824 12.6 37.8024 13.58 36.6824 14.54C36.1224 15.0067 35.4557 15.3867 34.6824 15.68C33.9224 15.9733 33.1357 16.12 32.3224 16.12C30.989 16.12 29.9357 15.7133 29.1624 14.9C28.3357 14.02 27.9224 12.8933 27.9224 11.52C27.9224 10.1467 28.4357 8.94667 29.4624 7.92001C30.5024 6.89334 31.7424 6.38 33.1824 6.38C34.209 6.38 35.0424 6.60667 35.6824 7.06001C36.3224 7.50001 36.649 8.10001 36.6624 8.86001C36.6624 9.88667 36.249 10.72 35.4224 11.36C34.609 12 33.489 12.4467 32.0624 12.7L31.7824 11.52Z" fill="white"/>
<path d="M27.2005 8.8C27.2005 10.1867 26.3738 11.2467 24.7205 11.98C24.7605 12.22 24.8205 12.5067 24.9005 12.84C25.1405 13.8267 25.5405 14.3333 26.1005 14.36C26.1405 14.36 26.1805 14.36 26.2205 14.36C27.2872 14.36 28.0805 13.42 28.6005 11.54C28.8805 11.7933 29.1472 12.1733 29.4005 12.68C29.2138 13.4 28.9472 14.0067 28.6005 14.5C28.2672 14.9933 27.9005 15.3467 27.5005 15.56C26.7938 15.9333 26.1272 16.12 25.5005 16.12C24.0338 16.12 23.0072 15.3 22.4205 13.66C22.1938 13.0067 22.0405 12.34 21.9605 11.66C22.7205 11.4733 23.3205 11.1667 23.7605 10.74C24.2005 10.3 24.4205 9.83333 24.4205 9.34C24.4205 8.48667 23.9938 8.06 23.1405 8.06C22.6738 8.06 22.2738 8.24 21.9405 8.6C21.6072 8.94667 21.3872 9.36667 21.2805 9.86C21.2005 10.54 21.0672 11.6133 20.8805 13.08C20.7072 14.5333 20.5938 15.5067 20.5405 16H17.8805C18.8405 7.82667 19.4205 2.80667 19.6205 0.939999C19.9005 0.833332 20.2805 0.779999 20.7605 0.779999C21.8005 0.779999 22.3205 1.08667 22.3205 1.7V1.82C22.0538 4.23333 21.8072 6.08 21.5805 7.36C22.3138 6.68 23.2338 6.34 24.3405 6.34C25.1672 6.34 25.8472 6.55333 26.3805 6.98C26.9272 7.40667 27.2005 8.01333 27.2005 8.8Z" fill="white"/>
<path d="M12.9899 6.38C14.2165 6.38 15.2365 6.77334 16.0499 7.56001C16.8765 8.34667 17.2899 9.30667 17.2899 10.44C17.2899 12.16 16.7832 13.54 15.7699 14.58C14.7699 15.6067 13.5565 16.12 12.1299 16.12C10.7032 16.12 9.56987 15.7133 8.72987 14.9C7.9032 14.0867 7.48987 13.08 7.48987 11.88C7.48987 10.2 8.0032 8.86667 9.02987 7.88C10.0699 6.88 11.3899 6.38 12.9899 6.38ZM12.5899 8.00001C11.9632 8.00001 11.4365 8.36001 11.0099 9.08001C10.5832 9.80001 10.3499 10.7067 10.3099 11.8C10.3099 12.5733 10.4632 13.2133 10.7699 13.72C11.0899 14.2267 11.5699 14.48 12.2099 14.48C12.8499 14.48 13.3832 14.1267 13.8099 13.42C14.2499 12.7133 14.4699 11.9067 14.4699 11C14.4699 10.0933 14.3165 9.37334 14.0099 8.84001C13.7032 8.28001 13.2299 8.00001 12.5899 8.00001Z" fill="white"/>
<path d="M5.2 3.16C4.92 3.77333 4.50667 4.28 3.96 4.68C3.41333 5.08 2.82 5.28 2.18 5.28C1.54 5.28 1.01333 5.09333 0.6 4.72C0.2 4.34667 0 3.79333 0 3.06C0 2.32667 0.326667 1.76667 0.98 1.38C1.63333 0.979999 2.4 0.779999 3.28 0.779999H11.22C11.26 0.966665 11.28 1.14667 11.28 1.32C11.28 1.77333 11.1333 2.19333 10.84 2.58C10.5467 2.96667 10.1 3.16 9.5 3.16C9.47333 3.16 9.45333 3.16 9.44 3.16H5.2ZM2.6 3.16C2.10667 3.16 1.86 3.33333 1.86 3.68C1.86 3.96 2.07333 4.1 2.5 4.1C2.7 4.1 2.93333 4.01333 3.2 3.84C3.48 3.66667 3.71333 3.44 3.9 3.16H2.6ZM6.74 12.16C6.40667 14.7733 5.22667 16.08 3.2 16.08C2.48 16.08 1.9 15.86 1.46 15.42C1.03333 14.98 0.82 14.4267 0.82 13.76C0.82 12.2 2.00667 10.8667 4.38 9.76L5.08 4.44C5.62667 4.09333 6.26 3.92 6.98 3.92C7.31333 3.92 7.63333 3.95333 7.94 4.02L6.74 12.16ZM4.16 11.46C2.92 12.18 2.3 12.8733 2.3 13.54C2.3 14.02 2.53333 14.26 3 14.26C3.53333 14.26 3.86667 13.7467 4 12.72L4.16 11.46Z" fill="white"/>
</svg>
